<svg xmlns="http://www.w3.org/2000/svg" width="26.066" height="20" viewBox="7.819 6 26.066 20">
  <path fill="#fff" d="M16.01 12.117c-4.454-.088-8.12 2.658-8.19 6.132-.023 1.207.392 2.344 1.13 3.317C10.216 23.197 8.83 26 8.83 26l4.09-1.762c.88.28 1.838.442 2.84.46 4.455.09 8.123-2.658 8.19-6.133.07-3.472-3.486-6.36-7.94-6.448m16.744 3.333c.738-.973 1.153-2.11 1.13-3.318-.07-3.474-3.738-6.22-8.194-6.13-3.733.07-6.836 2.114-7.7 4.817 1.742.328 3.342 1.042 4.632 2.09 1.86 1.51 2.864 3.524 2.828 5.67.162.004.325.005.488 0 1.005-.016 1.96-.178 2.843-.46l4.09 1.764c-.002 0-1.387-2.804-.117-4.434"/>
</svg>
